<?xml version="1.0" encoding="UTF-8"?>
<svg version="1.1" xmlns="http://www.w3.org/2000/svg" width="294" height="512">
<path d="M0 0 C0.99304654 -0.00523668 1.98609307 -0.01047336 3.00923193 -0.01586872 C6.3345951 -0.03086241 9.65980432 -0.03157375 12.98519897 -0.03224182 C15.37052673 -0.03986382 17.75585202 -0.04829139 20.14117432 -0.0574646 C26.6207579 -0.07941492 33.10030727 -0.08823155 39.5799222 -0.09329104 C43.63010296 -0.0965528 47.68027427 -0.10307823 51.73044968 -0.11029243 C62.95630651 -0.12985496 74.18215458 -0.14626076 85.40802956 -0.14916897 C86.12589723 -0.14935654 86.84376491 -0.14954411 87.58338615 -0.14973736 C89.03852741 -0.1501036 90.49366867 -0.1504673 91.94880994 -0.15082847 C92.67109176 -0.15101128 93.39337358 -0.1511941 94.13754272 -0.15138245 C94.86071199 -0.151563 95.58388126 -0.15174354 96.32896475 -0.15192956 C108.03790514 -0.15546862 119.74666132 -0.18247566 131.45553787 -0.21988034 C143.49268769 -0.25802415 155.52974627 -0.2773269 167.56695783 -0.27762848 C174.31901888 -0.27821175 181.07086026 -0.28661865 187.82286453 -0.31562614 C194.17756279 -0.34183917 200.53182699 -0.34399335 206.88655472 -0.3279705 C209.21328682 -0.32615851 211.54004407 -0.33282398 213.86672211 -0.34878922 C238.45398254 -0.50715685 238.45398254 -0.50715685 249.47103882 7.52415466 C256.06401002 14.43107687 259.24940032 20.37445409 259.2302599 29.9298811 C259.23261213 30.72110474 259.23496436 31.51232839 259.23738787 32.32752851 C259.24408928 35.00109094 259.2436193 37.67460491 259.24320984 40.34817505 C259.24650775 42.27547 259.25023316 44.20276426 259.25435132 46.13005763 C259.26438766 51.44377226 259.26809073 56.75747558 259.27074063 62.07119834 C259.27463882 67.79528337 259.28421746 73.51935942 259.29295349 79.24343872 C259.31273126 93.07549351 259.32278561 106.90754906 259.33168128 120.73961446 C259.33606189 127.24922926 259.34142927 133.75884325 259.34667015 140.26845741 C259.36368347 161.90061009 259.37820344 183.53276161 259.38541889 205.16491985 C259.38589365 206.56413622 259.38636954 207.96335259 259.38684655 209.36256896 C259.38708293 210.05645982 259.38731931 210.75035068 259.38756285 211.46526854 C259.38876405 214.98090962 259.3899795 218.4965507 259.39120483 222.01219177 C259.39144498 222.70988342 259.39168513 223.40757507 259.39193256 224.12640889 C259.3998262 246.74931342 259.42325911 269.37216554 259.45576078 291.99504718 C259.4900542 315.90871259 259.50976843 339.8223438 259.51306313 363.73603469 C259.51523059 376.7734958 259.52401372 389.81087987 259.54952431 402.8483181 C259.57119592 413.94961957 259.57929915 425.0508253 259.56955753 436.15214553 C259.56500262 441.81790283 259.56696823 447.48346243 259.58631897 453.14919281 C259.60387827 458.33510675 259.60301178 463.52067771 259.58742168 468.70659492 C259.5850346 470.58348992 259.58942585 472.46040821 259.60125033 474.33726748 C259.61632793 476.88833649 259.60672593 479.43818371 259.59102345 481.98922253 C259.60124565 482.71818254 259.61146786 483.44714256 259.62199983 484.19819227 C259.52597948 491.34409313 256.43473647 497.48645917 251.70541382 502.82884216 C243.20916242 510.45897084 234.1525396 512.57739477 223.10978699 512.54830933 C222.11996958 512.553546 221.13015217 512.55878268 220.1103403 512.56417805 C216.8019024 512.57914971 213.49361956 512.57988259 210.18515015 512.58055115 C207.80952698 512.58817457 205.43390627 512.59660238 203.05828857 512.60577393 C196.60975493 512.62770867 190.16125569 512.63653874 183.71269059 512.64160037 C179.68143302 512.64486369 175.65018493 512.65139 171.61893272 512.65860176 C160.44364767 512.67816077 149.2683714 512.69456904 138.09306812 512.69747829 C137.02152071 512.69775965 137.02152071 512.69775965 135.92832587 512.69804669 C134.48032041 512.69841292 133.03231496 512.69877662 131.5843095 512.6991378 C130.86558007 512.69932061 130.14685065 512.69950342 129.40634155 512.69969177 C128.32692182 512.6999626 128.32692182 512.6999626 127.22569563 512.70023889 C115.57178394 512.70377871 103.91805724 512.7307921 92.26420967 512.76818966 C80.28126874 512.8063336 68.29841946 512.82563621 56.31541651 512.82593781 C49.59465934 512.82652101 42.87415618 512.83544251 36.15345192 512.86393547 C29.82910847 512.89014861 23.50520116 512.89230263 17.18082809 512.87627983 C14.86538299 512.87446792 12.54991263 512.88113255 10.23452187 512.89709854 C-16.71853102 513.07155941 -16.71853102 513.07155941 -27.43911743 502.95384216 C-32.98857775 496.590461 -35.05499334 491.01098119 -35.03818226 482.61842823 C-35.0417106 481.43159276 -35.0417106 481.43159276 -35.04531023 480.22078082 C-35.05201164 477.54721838 -35.05154166 474.87370442 -35.0511322 472.20013428 C-35.05443011 470.27283933 -35.05815553 468.34554507 -35.06227368 466.41825169 C-35.07231002 461.10453707 -35.0760131 455.79083374 -35.07866299 450.47711098 C-35.08256119 444.75302595 -35.09213983 439.02894991 -35.10087585 433.30487061 C-35.12065362 419.47281581 -35.13070797 405.64076027 -35.13960364 391.80869487 C-35.14398425 385.29908006 -35.14935163 378.78946607 -35.15459251 372.27985191 C-35.17160583 350.64769923 -35.1861258 329.01554771 -35.19334126 307.38338947 C-35.19381601 305.9841731 -35.1942919 304.58495673 -35.19476892 303.18574036 C-35.19500529 302.4918495 -35.19524167 301.79795864 -35.19548521 301.08304079 C-35.19668642 297.5673997 -35.19790186 294.05175863 -35.1991272 290.53611755 C-35.19936735 289.8384259 -35.1996075 289.14073426 -35.19985492 288.42190044 C-35.20774857 265.7989959 -35.23118147 243.17614379 -35.26368314 220.55326215 C-35.29797657 196.63959673 -35.31769079 172.72596553 -35.3209855 148.81227463 C-35.32315295 135.77481352 -35.33193608 122.73742945 -35.35744667 109.69999123 C-35.37911828 98.59868975 -35.38722152 87.49748403 -35.37747989 76.3961638 C-35.37292499 70.7304065 -35.37489059 65.0648469 -35.39424133 59.39911652 C-35.41180063 54.21320258 -35.41093414 49.02763162 -35.39534404 43.8417144 C-35.39295696 41.96481941 -35.39734821 40.08790111 -35.40917269 38.21104185 C-35.42425029 35.65997284 -35.41464829 33.11012561 -35.39894581 30.5590868 C-35.40916802 29.83012678 -35.41939022 29.10116677 -35.42992219 28.35011706 C-35.33385382 21.20064264 -32.23956086 15.07045337 -27.51724243 9.71946716 C-19.36302941 2.41424 -10.66036458 -0.02787147 0 0 Z M72.09603882 27.27415466 C72.4750809 30.56491463 72.4750809 30.56491463 74.09603882 33.27415466 C76.45826099 33.37972083 78.79139266 33.42093964 81.15438843 33.41941833 C81.89259323 33.42277695 82.63079803 33.42613556 83.39137268 33.42959595 C85.84372619 33.43913348 88.29601164 33.44105046 90.74838257 33.44212341 C92.44610116 33.44533406 94.14381948 33.44869798 95.84153748 33.45220947 C99.40513755 33.45820777 102.96871335 33.46004866 106.53231812 33.4594574 C111.10696925 33.45935574 115.68146532 33.47300886 120.25607967 33.49022961 C123.76385722 33.50132811 127.27159702 33.50337727 130.77939034 33.50284767 C132.46635027 33.50403101 134.15331109 33.50847245 135.84025383 33.51618004 C138.19637907 33.52593675 140.5521644 33.52311919 142.90829468 33.51707458 C143.96113647 33.52550385 143.96113647 33.52550385 145.0352478 33.53410339 C149.0099483 33.61194246 149.0099483 33.61194246 152.09603882 31.27415466 C151.93096236 28.69875253 151.93096236 28.69875253 151.09603882 26.27415466 C148.12446665 24.78836858 145.4392359 25.13860455 142.12362671 25.12889099 C141.40638931 25.12553238 140.68915192 25.12217377 139.95018005 25.11871338 C137.5730009 25.109194 135.19589211 25.1072598 132.81869507 25.10618591 C131.16964183 25.10297411 129.52058888 25.0996101 127.87153625 25.09609985 C124.41226541 25.09010618 120.95301957 25.08826021 117.4937439 25.08885193 C113.05710143 25.08895359 108.62061887 25.07529877 104.18401432 25.05807972 C100.7774227 25.04697147 97.37086989 25.04493235 93.96426201 25.04546165 C92.32836798 25.04427986 90.69247301 25.03984696 89.05659676 25.03212929 C86.77023175 25.02235262 84.48421585 25.02519805 82.19784546 25.03123474 C80.89593765 25.02980972 79.59402985 25.0283847 78.25267029 25.0269165 C74.93603503 25.02835303 74.93603503 25.02835303 72.09603882 27.27415466 Z M-11.90396118 55.27415466 C-11.90396118 184.96415466 -11.90396118 314.65415466 -11.90396118 448.27415466 C69.93603882 448.27415466 151.77603882 448.27415466 236.09603882 448.27415466 C236.09603882 318.58415466 236.09603882 188.89415466 236.09603882 55.27415466 C154.25603882 55.27415466 72.41603882 55.27415466 -11.90396118 55.27415466 Z M97.15853882 468.52415466 C95.09438016 473.86668296 94.58983918 478.40754348 96.09603882 483.96165466 C99.03672381 488.83216418 102.64195929 492.45612815 108.09603882 494.27415466 C114.53026969 494.69607144 118.68801579 494.21926121 123.76400757 489.83274841 C127.46340002 486.0454844 129.02039221 482.78268081 129.26400757 477.47727966 C128.88320853 472.48261327 126.87548088 469.17351089 123.65853882 465.46165466 C119.09083191 461.56239267 115.63160722 460.76871086 109.70150757 460.89134216 C104.3691086 461.67481308 100.61236901 464.51325508 97.15853882 468.52415466 Z " fill="#050505" transform="translate(34.903961181640625,-0.2741546630859375)"/>
<path d="M0 0 C2.16154372 1.60966022 4.04431293 3.17514039 6 5 C28.33879583 24.81134286 55.55275951 33.39296536 85.17041016 32.18652344 C109.62907904 30.574235 131.72535809 19.74548093 149.74609375 3.41796875 C153.07134176 0.42092704 155.46228517 -1 160 -1 C164.12508633 0.72678033 166.27321967 2.87491367 168 7 C168 10.73642486 167.46757292 12.44192909 165.0625 15.3125 C164.0475523 16.21499611 163.02564676 17.10968164 162 18 C161.319375 18.65871094 160.63875 19.31742187 159.9375 19.99609375 C135.02525655 43.63814058 103.04258323 51.75942194 69.5234375 51.3125 C42.22613306 50.49132263 16.81333286 39.35920528 -4 22 C-4.75410156 21.38640625 -5.50820312 20.7728125 -6.28515625 20.140625 C-12.7136962 14.80770891 -12.7136962 14.80770891 -13.3359375 10.87890625 C-13.44166619 4.60919475 -13.44166619 4.60919475 -11.1875 1.5 C-7.19521391 -1.23756761 -4.57796831 -1.25669718 0 0 Z " fill="#161616" transform="translate(70,281)"/>
<path d="M0 0 C5.09063156 2.95821095 8.53857723 7.03520694 11.0625 12.3125 C12.55979746 19.79898732 12.08567061 25.32843687 8.38671875 32.1328125 C4.94126687 36.80595413 0.13421858 39.62192714 -5.3125 41.4375 C-12.58010168 42.47785198 -18.35050414 40.65131741 -24.3125 36.4375 C-29.30952767 31.32920249 -31.40976806 26.80148202 -31.625 19.6875 C-31.53486283 13.55817226 -29.87029577 9.16500733 -25.6640625 4.6796875 C-18.44453639 -1.84625969 -9.19223757 -4.11882953 0 0 Z " fill="#131313" transform="translate(116.3125,170.5625)"/>
<path d="M0 0 C5.74030722 3.32395613 9.62027381 8.16064957 11.6875 14.4375 C12.59783027 21.51902267 11.97821614 27.60584555 7.6875 33.4375 C2.75506731 38.36993269 -2.58684197 41.47902844 -9.625 41.9375 C-16.24962726 41.69928566 -22.05914566 38.63307602 -26.75 34.0625 C-30.62464689 27.55309322 -32.56573097 21.88905472 -30.84375 14.3984375 C-28.71612439 7.83825852 -25.01132658 3.07796321 -19.125 -0.5 C-12.67711923 -2.29695038 -6.24027773 -2.77345677 0 0 Z " fill="#111111" transform="translate(197.3125,170.5625)"/>
<path d="M0 0 C-1.38188453 3.21043882 -2.92421903 5.04936365 -5.625 7.25 C-6.57246094 8.03117188 -6.57246094 8.03117188 -7.5390625 8.828125 C-8.02117187 9.21484375 -8.50328125 9.6015625 -9 10 C-7.6834994 5.81113445 -4.97532335 0 0 0 Z " fill="#787878" transform="translate(177,172)"/>
<path d="M0 0 C0.66 0.33 1.32 0.66 2 1 C-0.97 3.97 -3.94 6.94 -7 10 C-7.66 9.67 -8.32 9.34 -9 9 C-6.21000549 5.51250686 -3.74764169 2.49842779 0 0 Z " fill="#868686" transform="translate(13,5)"/>
</svg>
